<?xml version="1.0" encoding="utf-8"?>
<!-- Generator: Adobe Illustrator 15.0.2, SVG Export Plug-In . SVG Version: 6.00 Build 0)  -->
<!DOCTYPE svg PUBLIC "-//W3C//DTD SVG 1.1//EN" "http://www.w3.org/Graphics/SVG/1.1/DTD/svg11.dtd">
<svg version="1.1" id="Calque_1" xmlns="http://www.w3.org/2000/svg" xmlns:xlink="http://www.w3.org/1999/xlink" x="0px" y="0px"
	 width="600px" height="600px" viewBox="0 0 600 600" enable-background="new 0 0 600 600" xml:space="preserve">
<g>
	
		<image overflow="visible" opacity="0.75" width="2425" height="2381" xlink:href="9127800E.png"  transform="matrix(0.24 0 0 0.24 -0.7866 40.1016)">
	</image>
	<g>
		<linearGradient id="SVGID_1_" gradientUnits="userSpaceOnUse" x1="-2.2837" y1="101.8013" x2="545.2679" y2="491.8573">
			<stop  offset="0" style="stop-color:#E7C44B"/>
			<stop  offset="0.2147" style="stop-color:#EED276"/>
			<stop  offset="0.6978" style="stop-color:#FFF4E2"/>
			<stop  offset="0.7104" style="stop-color:#FFF5E5"/>
			<stop  offset="0.7878" style="stop-color:#FFEBB9"/>
			<stop  offset="0.9623" style="stop-color:#FFD34A"/>
			<stop  offset="1" style="stop-color:#FFCE31"/>
		</linearGradient>
		<path fill="url(#SVGID_1_)" d="M517.612,389.729c-3.515-39.219-6.039-78.567-7.995-117.99l-2.641-59.173
			c-0.833-19.73-1.654-39.462-2.639-59.173c-1.701-34.494-3.827-68.932-6.554-103.292l-47.09,3.548l-63.251,4.989l-63.224,5.22
			l-31.603,2.687l-31.592,2.773c-42.117,3.746-84.216,7.639-126.284,11.794c-21.031,2.097-42.062,4.198-63.074,6.456l-31.518,3.386
			c-10.312,1.18-20.631,2.295-30.936,3.533l15.051,116.494l15.3,117.031l30.806,233.475c41.766-5.117,83.387-11.442,124.843-19.142
			c10.409-1.935,20.81-3.94,31.201-6.021c10.387-2.119,20.775-4.226,31.151-6.434c20.758-4.37,41.479-9.037,62.218-13.565
			c41.46-9.195,82.944-18.194,124.535-26.304c28.829-5.566,57.687-10.907,86.684-15.086c-2.49-8.824-4.567-17.694-6.268-26.621
			c-1.839-9.679-3.25-19.414-4.342-29.19C519.371,409.338,518.494,399.533,517.612,389.729z"/>
	</g>
</g>
<rect x="207.81" y="11.605" transform="matrix(0.9945 -0.1048 0.1048 0.9945 -5.7887 27.1928)" fill="#FBB03B" fill-opacity="0.61" stroke="#000000" stroke-width="0.2453" stroke-miterlimit="10" width="95.927" height="114.111"/>
<g>
	<line fill="none" stroke="#000000" x1="7.5" y1="-39" x2="7.5" y2="-3"/>
	<line fill="none" stroke="#000000" x1="-46" y1="15.5" x2="-10" y2="15.5"/>
	<line fill="none" stroke="#000000" x1="-46" y1="562.5" x2="-10" y2="562.5"/>
	<line fill="none" stroke="#000000" x1="7.5" y1="617" x2="7.5" y2="581"/>
	<line fill="none" stroke="#000000" x1="607.5" y1="-39" x2="607.5" y2="-3"/>
	<line fill="none" stroke="#000000" x1="662" y1="15.5" x2="626" y2="15.5"/>
	<line fill="none" stroke="#000000" x1="662" y1="562.5" x2="626" y2="562.5"/>
	<line fill="none" stroke="#000000" x1="607.5" y1="617" x2="607.5" y2="581"/>
</g>
<g>
	<line fill="none" stroke="#000000" x1="7.5" y1="-39" x2="7.5" y2="-3"/>
	<line fill="none" stroke="#000000" x1="-46" y1="15.5" x2="-10" y2="15.5"/>
	<line fill="none" stroke="#000000" x1="-46" y1="562.5" x2="-10" y2="562.5"/>
	<line fill="none" stroke="#000000" x1="7.5" y1="617" x2="7.5" y2="581"/>
	<line fill="none" stroke="#000000" x1="607.5" y1="-39" x2="607.5" y2="-3"/>
	<line fill="none" stroke="#000000" x1="662" y1="15.5" x2="626" y2="15.5"/>
	<line fill="none" stroke="#000000" x1="662" y1="562.5" x2="626" y2="562.5"/>
	<line fill="none" stroke="#000000" x1="607.5" y1="617" x2="607.5" y2="581"/>
</g>
<line fill="none" x1="72.315" y1="284.103" x2="505.946" y2="228.774"/>
<text transform="matrix(0.7154 -0.0913 0.1266 0.992 175.9688 270.877)" fill="#1B1464" stroke="#1B1464" font-family="'BradleyHandITC'" font-size="150">4</text>
<text transform="matrix(0.7154 -0.0913 0.1266 0.992 243.6738 262.2383)" fill="#1B1464" stroke="#1B1464" font-family="'BradleyHandITC'" font-size="150">0</text>
<text transform="matrix(0.7154 -0.0913 0.1266 0.992 300.0151 255.0493)" fill="#1B1464" stroke="#1B1464" font-family="'BradleyHandITC'" font-size="150">4</text>
<text transform="matrix(0.7154 -0.0913 0.1266 0.992 367.7002 246.4126)" fill="#1B1464" stroke="#1B1464" font-family="'BradleyHandITC'" font-size="150"> </text>
<line fill="none" x1="-62.184" y1="443.886" x2="509.717" y2="351.438"/>
<text transform="matrix(0.5162 -0.0834 0.1596 0.9872 74.5278 421.7861)" fill="#1B1464" stroke="#1B1464" stroke-width="1.1312" font-family="'BradleyHandITC'" font-size="110">P</text>
<text transform="matrix(0.5162 -0.0834 0.1596 0.9872 105.7432 416.7402)" fill="#1B1464" stroke="#1B1464" stroke-width="1.1312" font-family="'BradleyHandITC'" font-size="110">a</text>
<text transform="matrix(0.5162 -0.0834 0.1596 0.9872 133.8711 412.1934)" fill="#1B1464" stroke="#1B1464" stroke-width="1.1312" font-family="'BradleyHandITC'" font-size="110">g</text>
<text transform="matrix(0.5162 -0.0834 0.1596 0.9872 166.7456 406.8779)" fill="#1B1464" stroke="#1B1464" stroke-width="1.1312" font-family="'BradleyHandITC'" font-size="110">e</text>
<text transform="matrix(0.5162 -0.0834 0.1596 0.9872 187.1245 403.585)" fill="#1B1464" stroke="#1B1464" stroke-width="1.1312" font-family="'BradleyHandITC'" font-size="110"> </text>
<text transform="matrix(0.5162 -0.0834 0.1596 0.9872 201.6021 401.2451)" fill="#1B1464" stroke="#1B1464" stroke-width="1.1312" font-family="'BradleyHandITC'" font-size="110">n</text>
<text transform="matrix(0.5162 -0.0834 0.1596 0.9872 236.9937 395.5234)" fill="#1B1464" stroke="#1B1464" stroke-width="1.1312" font-family="'BradleyHandITC'" font-size="110">o</text>
<text transform="matrix(0.5162 -0.0834 0.1596 0.9872 260.1606 391.7793)" fill="#1B1464" stroke="#1B1464" stroke-width="1.1312" font-family="'BradleyHandITC'" font-size="110">n</text>
<text transform="matrix(0.5162 -0.0834 0.1596 0.9872 295.5566 386.0576)" fill="#1B1464" stroke="#1B1464" stroke-width="1.1312" font-family="'BradleyHandITC'" font-size="110"> </text>
<text transform="matrix(0.5162 -0.0834 0.1596 0.9872 310.0186 383.7197)" fill="#1B1464" stroke="#1B1464" stroke-width="1.1312" font-family="'BradleyHandITC'" font-size="110">t</text>
<text transform="matrix(0.5162 -0.0834 0.1596 0.9872 329.7861 380.5244)" fill="#1B1464" stroke="#1B1464" stroke-width="1.1312" font-family="'BradleyHandITC'" font-size="110">r</text>
<text transform="matrix(0.5162 -0.0834 0.1596 0.9872 350.9873 377.0967)" fill="#1B1464" stroke="#1B1464" stroke-width="1.1312" font-family="'BradleyHandITC'" font-size="110">o</text>
<text transform="matrix(0.5162 -0.0834 0.1596 0.9872 374.1494 373.3525)" fill="#1B1464" stroke="#1B1464" stroke-width="1.1312" font-family="'BradleyHandITC'" font-size="110">u</text>
<text transform="matrix(0.5162 -0.0834 0.1596 0.9872 406.5137 368.1211)" fill="#1B1464" stroke="#1B1464" stroke-width="1.1312" font-family="'BradleyHandITC'" font-size="110">v</text>
<text transform="matrix(0.5162 -0.0834 0.1596 0.9872 433.5039 363.7578)" fill="#1B1464" stroke="#1B1464" stroke-width="1.1312" font-family="'BradleyHandITC'" font-size="110">é</text>
<text transform="matrix(0.5162 -0.0834 0.1596 0.9872 453.874 360.4648)" fill="#1B1464" stroke="#1B1464" stroke-width="1.1312" font-family="'BradleyHandITC'" font-size="110">e</text>
<text transform="matrix(0.5162 -0.0834 0.1596 0.9872 474.2393 357.1729)" fill="#1B1464" stroke="#1B1464" stroke-width="1.1312" font-family="'BradleyHandITC'" font-size="110">!</text>
<text transform="matrix(0.5162 -0.0834 0.1596 0.9872 490.9922 354.4648)" fill="#1B1464" stroke="#1B1464" stroke-width="1.1312" font-family="'BradleyHandITC'" font-size="110"> </text>
</svg>
